<svg xmlns="http://www.w3.org/2000/svg" xmlns:xlink="http://www.w3.org/1999/xlink" width="239pt" height="546pt" viewBox="0.00 0.00 239.47 545.60">
<g id="graph0" class="graph" transform="scale(1 1) rotate(0) translate(4 541.6)">
<title>AI_MUD_Cycle</title>
<polygon fill="white" stroke="none" points="-4,4 -4,-541.6 235.47,-541.6 235.47,4 -4,4"/>
<!-- World -->
<g id="node1" class="node">
<title>World</title>
<polygon fill="khaki" stroke="black" points="231.47,-537.6 97.65,-537.6 97.65,-496 231.47,-496 231.47,-537.6"/>
<text text-anchor="middle" x="164.56" y="-521" font-family="Times,serif" font-size="14.00">游戏世界</text>
<text text-anchor="middle" x="164.56" y="-504.2" font-family="Times,serif" font-size="14.00">(经济, 势力, 玩家行为等)</text>
</g>
<!-- Data -->
<g id="node2" class="node">
<title>Data</title>
<polygon fill="lightcyan" stroke="black" points="167.06,-448 88.06,-448 88.06,-412 167.06,-412 167.06,-448"/>
<text text-anchor="middle" x="127.56" y="-425.8" font-family="Times,serif" font-size="14.00">数据收集模块</text>
</g>
<!-- World&#45;&gt;Data -->
<g id="edge1" class="edge">
<title>World-&gt;Data</title>
<path fill="none" stroke="black" d="M155.79,-495.7C150.98,-484.68 144.95,-470.84 139.69,-458.8"/>
<polygon fill="black" stroke="black" points="142.95,-457.52 135.75,-449.76 136.54,-460.32 142.95,-457.52"/>
<text text-anchor="middle" x="163.42" y="-469" font-family="Times,serif" font-size="10.00"> 实时状态</text>
</g>
<!-- AI -->
<g id="node3" class="node">
<title>AI</title>
<polygon fill="salmon" stroke="black" points="144.41,-364 42.71,-364 42.71,-322.4 144.41,-322.4 144.41,-364"/>
<text text-anchor="middle" x="93.56" y="-347.4" font-family="Times,serif" font-size="14.00">AI "大思考" 引擎</text>
<text text-anchor="middle" x="93.56" y="-330.6" font-family="Times,serif" font-size="14.00">(周期性运行)</text>
</g>
<!-- Data&#45;&gt;AI -->
<g id="edge2" class="edge">
<title>Data-&gt;AI</title>
<path fill="none" stroke="black" d="M120.68,-411.84C116.42,-401.21 110.82,-387.25 105.82,-374.78"/>
<polygon fill="black" stroke="black" points="109.16,-373.7 102.19,-365.72 102.66,-376.31 109.16,-373.7"/>
<text text-anchor="middle" x="128.85" y="-385" font-family="Times,serif" font-size="10.00"> 汇总数据</text>
</g>
<!-- Strategy -->
<g id="node4" class="node">
<title>Strategy</title>
<polygon fill="lightpink" stroke="black" points="89.12,-274.4 0,-274.4 0,-232.8 89.12,-232.8 89.12,-274.4"/>
<text text-anchor="middle" x="44.56" y="-257.8" font-family="Times,serif" font-size="14.00">生成NPC/势力</text>
<text text-anchor="middle" x="44.56" y="-241" font-family="Times,serif" font-size="14.00">新目标与策略</text>
</g>
<!-- AI&#45;&gt;Strategy -->
<g id="edge3" class="edge">
<title>AI-&gt;Strategy</title>
<path fill="none" stroke="black" d="M82.44,-322.32C76.22,-311.2 68.34,-297.11 61.38,-284.67"/>
<polygon fill="black" stroke="black" points="64.48,-283.04 56.55,-276.02 58.37,-286.46 64.48,-283.04"/>
<text text-anchor="middle" x="92" y="-295.4" font-family="Times,serif" font-size="10.00"> 分析与决策</text>
</g>
<!-- Review -->
<g id="node5" class="node">
<title>Review</title>
<polygon fill="lightgrey" stroke="black" points="76.56,-184.8 8.06,-143.2 76.56,-101.6 145.06,-143.2 76.56,-184.8"/>
<text text-anchor="middle" x="76.56" y="-147.4" font-family="Times,serif" font-size="14.00">开发者审核</text>
<text text-anchor="middle" x="76.56" y="-130.6" font-family="Times,serif" font-size="14.00">与内容植入</text>
</g>
<!-- Strategy&#45;&gt;Review -->
<g id="edge4" class="edge">
<title>Strategy-&gt;Review</title>
<path fill="none" stroke="black" d="M50.51,-232.46C54.08,-220.34 58.79,-204.4 63.22,-189.41"/>
<polygon fill="black" stroke="black" points="66.47,-190.75 65.94,-180.17 59.75,-188.77 66.47,-190.75"/>
<text text-anchor="middle" x="80.17" y="-205.8" font-family="Times,serif" font-size="10.00"> 提交AI建议</text>
</g>
<!-- Review&#45;&gt;AI -->
<g id="edge7" class="edge">
<title>Review-&gt;AI</title>
<path fill="none" stroke="grey" stroke-dasharray="5,2" d="M94,-174.4C98.44,-183.3 102.75,-193.21 105.56,-202.8 116.84,-241.25 113.34,-252.39 115.56,-292.4 115.86,-297.73 116.95,-299.25 115.56,-304.4 114.86,-307 113.93,-309.6 112.85,-312.16"/>
<polygon fill="grey" stroke="grey" points="109.81,-310.42 108.44,-320.93 116.06,-313.57 109.81,-310.42"/>
<text text-anchor="middle" x="137.3" y="-256.6" font-family="Times,serif" font-size="10.00"> (可选)反馈/</text>
<text text-anchor="middle" x="137.3" y="-244.6" font-family="Times,serif" font-size="10.00">拒绝部分建议</text>
</g>
<!-- Update -->
<g id="node6" class="node">
<title>Update</title>
<polygon fill="lightgreen" stroke="black" points="217.09,-41.6 84.03,-41.6 84.03,0 217.09,0 217.09,-41.6"/>
<text text-anchor="middle" x="150.56" y="-25" font-family="Times,serif" font-size="14.00">内容更新</text>
<text text-anchor="middle" x="150.56" y="-8.2" font-family="Times,serif" font-size="14.00">(激活事件, 修改NPC等)</text>
</g>
<!-- Review&#45;&gt;Update -->
<g id="edge5" class="edge">
<title>Review-&gt;Update</title>
<path fill="none" stroke="black" d="M94.85,-112.44C106.27,-93.87 120.9,-70.06 132.3,-51.51"/>
<polygon fill="black" stroke="black" points="135.22,-53.45 137.47,-43.09 129.26,-49.78 135.22,-53.45"/>
<text text-anchor="middle" x="148.02" y="-74.6" font-family="Times,serif" font-size="10.00"> 批准/修改后</text>
<text text-anchor="middle" x="148.02" y="-62.6" font-family="Times,serif" font-size="10.00">转化为内容</text>
</g>
<!-- Update&#45;&gt;World -->
<g id="edge6" class="edge">
<title>Update-&gt;World</title>
<path fill="none" stroke="black" d="M163.93,-41.71C178.14,-64.83 198.56,-104.62 198.56,-142.2 198.56,-431 198.56,-431 198.56,-431 198.56,-450.26 190.92,-470.32 182.87,-486.1"/>
<polygon fill="black" stroke="black" points="180.03,-484 178.33,-494.46 186.18,-487.34 180.03,-484"/>
<text text-anchor="middle" x="214.81" y="-295.4" font-family="Times,serif" font-size="10.00"> 应用变更</text>
</g>
</g>
</svg>