<svg xmlns="http://www.w3.org/2000/svg" xmlns:xlink="http://www.w3.org/1999/xlink" width="361pt" height="354pt" viewBox="0.00 0.00 361.00 353.64">
<g id="graph0" class="graph" transform="scale(1 1) rotate(0) translate(4 349.64)">
<title>LOD_Simulation</title>
<polygon fill="white" stroke="none" points="-4,4 -4,-349.64 357,-349.64 357,4 -4,4"/>
<g id="clust1" class="cluster">
<title>cluster_macro</title>
<polygon fill="lightgrey" stroke="lightgrey" points="35,-8 35,-84.8 345,-84.8 345,-8 35,-8"/>
<text text-anchor="middle" x="190" y="-68.2" font-family="Times,serif" font-size="14.00">宏观模拟层 (抽象)</text>
</g>
<g id="clust2" class="cluster">
<title>cluster_micro</title>
<polygon fill="lightblue" stroke="lightblue" points="8,-164.8 8,-337.64 334,-337.64 334,-164.8 8,-164.8"/>
<text text-anchor="middle" x="171" y="-321.04" font-family="Times,serif" font-size="14.00">微观模拟圈 (精细)</text>
</g>
<!-- Macro_Factions -->
<g id="node1" class="node">
<title>Macro_Factions</title>
<ellipse fill="white" stroke="black" cx="279" cy="-34" rx="40.01" ry="18"/>
<text text-anchor="middle" x="279" y="-29.8" font-family="Times,serif" font-size="14.00">势力战略</text>
</g>
<!-- Macro_Economy -->
<g id="node2" class="node">
<title>Macro_Economy</title>
<ellipse fill="white" stroke="black" cx="181" cy="-34" rx="40.01" ry="18"/>
<text text-anchor="middle" x="181" y="-29.8" font-family="Times,serif" font-size="14.00">全局经济</text>
</g>
<!-- Macro_War -->
<g id="node3" class="node">
<title>Macro_War</title>
<ellipse fill="white" stroke="black" cx="83" cy="-34" rx="40.01" ry="18"/>
<text text-anchor="middle" x="83" y="-29.8" font-family="Times,serif" font-size="14.00">战争态势</text>
</g>
<!-- Micro_NPC -->
<g id="node6" class="node">
<title>Micro_NPC</title>
<ellipse fill="white" stroke="black" cx="73" cy="-190.8" rx="56.91" ry="18"/>
<text text-anchor="middle" x="73" y="-186.6" font-family="Times,serif" font-size="14.00">个体NPC AI</text>
</g>
<!-- Macro_War&#45;&gt;Micro_NPC -->
<g id="edge5" class="edge">
<title>Macro_War-&gt;Micro_NPC</title>
<path fill="none" stroke="red" d="M79.78,-84.8C78.15,-110.01 76.24,-139.72 74.85,-161.09"/>
<polygon fill="red" stroke="red" points="72.91,-152.83 74.42,-163.31 79.78,-154.17 72.91,-152.83"/>
<text text-anchor="middle" x="110.64" y="-126.8" font-family="Times,serif" font-size="10.00" fill="red"> 宏观指令/情境下达</text>
<text text-anchor="middle" x="110.64" y="-114.8" font-family="Times,serif" font-size="10.00" fill="red"> (影响微观体验)</text>
</g>
<!-- Macro_Center -->
<!-- Player -->
<g id="node5" class="node">
<title>Player</title>
<ellipse fill="gold" stroke="black" cx="188" cy="-275.32" rx="25.52" ry="25.52"/>
<ellipse fill="none" stroke="black" cx="188" cy="-275.32" rx="29.52" ry="29.52"/>
<text text-anchor="middle" x="188" y="-271.12" font-family="Times,serif" font-size="14.00">玩家</text>
</g>
<!-- Player&#45;&gt;Micro_NPC -->
<!-- Micro_Physics -->
<g id="node7" class="node">
<title>Micro_Physics</title>
<ellipse fill="white" stroke="black" cx="188" cy="-190.8" rx="40.01" ry="18"/>
<text text-anchor="middle" x="188" y="-186.6" font-family="Times,serif" font-size="14.00">物理交互</text>
</g>
<!-- Player&#45;&gt;Micro_Physics -->
<!-- Micro_Events -->
<g id="node8" class="node">
<title>Micro_Events</title>
<ellipse fill="white" stroke="black" cx="286" cy="-190.8" rx="40.01" ry="18"/>
<text text-anchor="middle" x="286" y="-186.6" font-family="Times,serif" font-size="14.00">本地事件</text>
</g>
<!-- Player&#45;&gt;Micro_Events -->
<!-- Micro_Events&#45;&gt;Macro_Factions -->
<g id="edge4" class="edge">
<title>Micro_Events-&gt;Macro_Factions</title>
<path fill="none" stroke="blue" d="M284.87,-164.8C284.03,-146.19 282.84,-119.96 281.76,-95.95"/>
<polygon fill="blue" stroke="blue" points="285.27,-96.14 281.32,-86.31 278.28,-96.46 285.27,-96.14"/>
<text text-anchor="middle" x="310.62" y="-126.8" font-family="Times,serif" font-size="10.00" fill="blue"> 重要结果上传</text>
<text text-anchor="middle" x="310.62" y="-114.8" font-family="Times,serif" font-size="10.00" fill="blue"> (影响宏观状态)</text>
</g>
</g>
</svg>